<svg width="26" height="25" viewBox="0 0 26 25" fill="none" xmlns="http://www.w3.org/2000/svg">
<path id="Star 2" d="M11.2844 2.19069C12.061 0.894719 13.939 0.894721 14.7156 2.19069L15.4213 3.36845C15.8742 4.12425 16.7684 4.49462 17.6231 4.28044L18.9549 3.94668C20.4204 3.57942 21.7483 4.90734 21.3811 6.37285L21.0473 7.70471C20.8331 8.55938 21.2035 9.45354 21.9593 9.90644L23.1371 10.6122C24.433 11.3888 24.433 13.2667 23.1371 14.0433L21.9593 14.7491C21.2035 15.202 20.8331 16.0961 21.0473 16.9508L21.3811 18.2827C21.7483 19.7482 20.4204 21.0761 18.9549 20.7088L17.6231 20.3751C16.7684 20.1609 15.8742 20.5313 15.4213 21.2871L14.7156 22.4648C13.939 23.7608 12.061 23.7608 11.2844 22.4648L10.5787 21.2871C10.1258 20.5313 9.23162 20.1609 8.37695 20.3751L7.04509 20.7088C5.57958 21.0761 4.25166 19.7482 4.61892 18.2827L4.95268 16.9508C5.16686 16.0961 4.79649 15.202 4.04069 14.7491L2.86293 14.0433C1.56696 13.2667 1.56696 11.3888 2.86293 10.6122L4.0407 9.90644C4.79649 9.45354 5.16686 8.55938 4.95268 7.70471L4.61892 6.37285C4.25166 4.90734 5.57958 3.57942 7.0451 3.94668L8.37695 4.28044C9.23162 4.49462 10.1258 4.12425 10.5787 3.36845L11.2844 2.19069Z" stroke="white" stroke-width="2"/>
</svg>
